<svg width="40" height="40" viewBox="0 0 40 40" fill="none" xmlns="http://www.w3.org/2000/svg">
<g clip-path="url(#clip0_5416_7958)">
<path d="M18.5374 2.55792C19.2744 1.5944 20.7256 1.5944 21.4626 2.55792C22.5869 4.02772 24.5994 4.48704 26.2501 3.65063C27.3322 3.10232 28.6396 3.73194 28.8856 4.91984C29.2609 6.7319 30.8747 8.0189 32.7248 7.98152C33.9377 7.95703 34.8425 9.09157 34.5487 10.2686C34.1006 12.064 34.9962 13.9238 36.6793 14.6928C37.7827 15.197 38.1056 16.6117 37.3302 17.5447C36.1475 18.9679 36.1475 21.0321 37.3302 22.4553C38.1056 23.3883 37.7827 24.803 36.6793 25.3072C34.9962 26.0762 34.1006 27.936 34.5487 29.7314C34.8425 30.9084 33.9377 32.043 32.7248 32.0185C30.8747 31.9811 29.2609 33.2681 28.8856 35.0802C28.6396 36.2681 27.3322 36.8977 26.2501 36.3494C24.5994 35.513 22.5869 35.9723 21.4626 37.4421C20.7256 38.4056 19.2744 38.4056 18.5374 37.4421C17.4131 35.9723 15.4006 35.513 13.7499 36.3494C12.6678 36.8977 11.3604 36.2681 11.1144 35.0802C10.7391 33.2681 9.1253 31.9811 7.27516 32.0185C6.0623 32.043 5.15754 30.9084 5.45131 29.7314C5.89944 27.936 5.00382 26.0762 3.32069 25.3072C2.21732 24.803 1.89441 23.3883 2.66977 22.4553C3.85253 21.0321 3.85253 18.9679 2.66977 17.5447C1.89441 16.6117 2.21732 15.197 3.32069 14.6928C5.00382 13.9238 5.89944 12.064 5.45131 10.2686C5.15754 9.09157 6.0623 7.95703 7.27516 7.98152C9.1253 8.0189 10.7391 6.7319 11.1144 4.91984C11.3604 3.73194 12.6678 3.10232 13.7499 3.65063C15.4006 4.48704 17.4131 4.02772 18.5374 2.55792Z" stroke="#2D4059" stroke-width="2"/>
<path d="M20 11.9869L22.1469 15.6729L23.011 15.1696L22.1469 15.6729C22.4295 16.1581 22.9031 16.5022 23.4519 16.621L27.6209 17.5238L24.7787 20.7047C24.4046 21.1234 24.2237 21.6801 24.2803 22.2388L24.71 26.4827L20.8065 24.7626C20.2927 24.5362 19.7073 24.5362 19.1935 24.7626L15.29 26.4827L15.7197 22.2388C15.7763 21.6801 15.5954 21.1234 15.2213 20.7047L12.3791 17.5238L16.5481 16.621C17.0969 16.5022 17.5705 16.1581 17.8531 15.6729L20 11.9869Z" stroke="#FF5722" stroke-width="2"/>
</g>
<defs>
<clipPath id="clip0_5416_7958">
<rect width="40" height="40" fill="white"/>
</clipPath>
</defs>
</svg>
