<svg width="40" height="40" viewBox="0 0 40 40" fill="none" xmlns="http://www.w3.org/2000/svg">
<path d="M19.7895 20.044V15.4244C19.7895 14.9402 19.397 14.5477 18.9128 14.5477V14.5477C17.1753 14.5477 15.7668 13.1392 15.7668 11.4017C15.7668 9.66418 17.1753 8.25566 18.9128 8.25566V8.25566C19.397 8.25566 19.7895 7.86314 19.7895 7.37894V5.42422C19.7895 3.86046 18.5219 2.59277 16.9581 2.59277H5.17187C3.51502 2.59277 2.17188 3.93592 2.17188 5.59277V34.8282C2.17188 36.485 3.51502 37.8282 5.17188 37.8282H34.4073C36.0641 37.8282 37.4073 36.485 37.4073 34.8282V23.2105C37.4073 21.5537 36.0605 20.2105 34.4037 20.2105C27.4747 20.2105 24.5606 20.2105 15.0072 20.2105C14.523 20.2105 14.1267 20.603 14.1267 21.0872V21.0872C14.1267 22.8247 12.7182 24.2332 10.9807 24.2332C9.2432 24.2332 7.83469 22.8247 7.83469 21.0872V21.0872C7.83469 20.603 7.44217 20.2105 6.95797 20.2105H2.17188" stroke="#2D4059" stroke-width="2" stroke-miterlimit="10"/>
<path d="M19.7891 37.8284V32.1656H20.6938C22.4313 32.1656 23.8398 30.7571 23.8398 29.0196C23.8398 27.2821 22.4313 25.8736 20.6938 25.8736H19.7891V20.2939" stroke="#2D4059" stroke-width="2" stroke-miterlimit="10"/>
<path d="M37.8276 15.3022C37.8276 8.05047 31.949 2.17188 24.6973 2.17188M32.2186 15.3022C32.2186 11.1483 28.8512 7.78094 24.6973 7.78094" stroke="#FF5722" stroke-width="2" stroke-miterlimit="10"/>
</svg>
