<svg width="60" height="70" viewBox="0 0 60 70" fill="none" xmlns="http://www.w3.org/2000/svg">
<circle cx="30" cy="30" r="30" fill="#FF5722"/>
<circle cx="30" cy="66" r="4" fill="#FF5722"/>
<g clip-path="url(#clip0_3428_2377)">
<path d="M44.1211 15H33.2812V29.1797H45V15.8789C45 15.3935 44.6065 15 44.1211 15ZM33.2812 37.0898H45V30.9375H33.2812V37.0898ZM38.2617 33.1348H40.0195C40.5049 33.1348 40.8984 33.5283 40.8984 34.0137C40.8984 34.4991 40.5049 34.8926 40.0195 34.8926H38.2617C37.7763 34.8926 37.3828 34.4991 37.3828 34.0137C37.3828 33.5283 37.7763 33.1348 38.2617 33.1348ZM33.2812 45H44.1211C44.6065 45 45 44.6065 45 44.1211V38.8477H33.2812V45ZM38.2617 41.0449H40.0195C40.5049 41.0449 40.8984 41.4384 40.8984 41.9238C40.8984 42.4092 40.5049 42.8027 40.0195 42.8027H38.2617C37.7763 42.8027 37.3828 42.4092 37.3828 41.9238C37.3828 41.4384 37.7763 41.0449 38.2617 41.0449ZM15 15.8789L15 44.1211C15 44.6065 15.3935 45 15.8789 45H22.3828V15H15.8789C15.3935 15 15 15.3935 15 15.8789ZM18.8086 29.1211C18.8086 28.6357 19.2021 28.2422 19.6875 28.2422C20.1729 28.2422 20.5664 28.6357 20.5664 29.1211V30.8789C20.5664 31.3643 20.1729 31.7578 19.6875 31.7578C19.2021 31.7578 18.8086 31.3643 18.8086 30.8789V29.1211ZM24.1406 45H31.5234V15L24.1406 15V45ZM25.957 29.1211C25.957 28.6357 26.3505 28.2422 26.8359 28.2422C27.3213 28.2422 27.7148 28.6357 27.7148 29.1211V30.8789C27.7148 31.3643 27.3213 31.7578 26.8359 31.7578C26.3505 31.7578 25.957 31.3643 25.957 30.8789V29.1211Z" fill="white"/>
</g>
<defs>
<clipPath id="clip0_3428_2377">
<rect width="30" height="30" fill="white" transform="translate(15 15)"/>
</clipPath>
</defs>
</svg>
