<svg width="60" height="60" viewBox="0 0 60 60" fill="none" xmlns="http://www.w3.org/2000/svg">
<rect width="60" height="60" fill="white"/>
<path d="M13.5954 41.9734C11.3483 39.547 10 36.9 10 32.4883C10 24.7678 15.6179 17.9297 23.4829 14.4004L25.5053 17.268C18.0897 21.2385 16.5167 26.3119 16.0673 29.6207C17.1909 28.9589 18.7639 28.7383 20.3369 28.9589C24.3817 29.4001 27.5277 32.4883 27.5277 36.6794C27.5277 38.6646 26.6289 40.6499 25.2806 42.194C23.7076 43.7381 21.9099 44.3998 19.6627 44.3998C17.1909 44.3998 14.9437 43.2969 13.5954 41.9734ZM36.0669 41.9734C33.8198 39.547 32.4715 36.9 32.4715 32.4883C32.4715 24.7678 38.0893 17.9297 45.9544 14.4004L47.9768 17.268C40.5612 21.2385 38.9882 26.3119 38.5388 29.6207C39.6623 28.9589 41.2353 28.7383 42.8083 28.9589C46.8532 29.4001 49.9992 32.4883 49.9992 36.6794C49.9992 38.6646 49.1004 40.6499 47.7521 42.194C46.4038 43.7381 44.3813 44.3998 42.1342 44.3998C39.6623 44.3998 37.4152 43.2969 36.0669 41.9734Z" fill="#FF5722"/>
</svg>
