<svg width="40" height="40" viewBox="0 0 40 40" fill="none" xmlns="http://www.w3.org/2000/svg">
<path fill-rule="evenodd" clip-rule="evenodd" d="M29.4842 13.4537C29.7304 14.0868 29.9023 14.8174 29.9492 15.8801C29.996 16.9467 30 17.2866 30 20.002C30 22.7174 29.9883 23.0573 29.9414 24.1239C29.8945 25.1866 29.7225 25.9134 29.4764 26.5502C29.2193 27.215 28.8262 27.8186 28.3221 28.3225C27.8181 28.8265 27.2143 29.2195 26.5494 29.4765C25.9164 29.7227 25.1857 29.8946 24.1228 29.9414C23.0559 29.9884 22.716 30 20.0001 30C17.2842 30 16.9441 29.9884 15.8774 29.9414C14.8143 29.8946 14.0876 29.7227 13.4506 29.4765C12.7863 29.2266 12.1806 28.8319 11.6803 28.324C11.1723 27.8238 10.7778 27.2222 10.5238 26.5502C10.2775 25.9172 10.1055 25.1866 10.0586 24.1239C10.0118 23.0573 10 22.7174 10 20.002C10 17.2866 10.0118 16.9467 10.0626 15.8761C10.1095 14.8135 10.2814 14.0868 10.5275 13.4499C10.7778 12.7857 11.1723 12.1801 11.6803 11.68C12.1806 11.1681 12.7823 10.7774 13.4546 10.5235C14.0876 10.2775 14.8183 10.1055 15.8812 10.0586C16.9481 10.0117 17.288 10 20.0039 10C22.7198 10 23.0597 10.0117 24.1306 10.0626C25.1934 10.1094 25.9204 10.2813 26.5572 10.5274C27.2215 10.7774 27.8272 11.1721 28.3275 11.68C28.8394 12.1802 29.2302 12.7818 29.4842 13.4537ZM13.8789 20.0026C13.8789 16.5987 16.6405 13.8373 20.0442 13.8373C23.448 13.8373 26.2094 16.5987 26.2094 20.0026C26.2094 23.4065 23.448 26.1679 20.0442 26.1679C16.6405 26.1679 13.8789 23.4065 13.8789 20.0026ZM16.0449 20.0026C16.0449 22.2109 17.836 24.0018 20.0442 24.0018C22.2524 24.0018 24.0434 22.2109 24.0434 20.0026C24.0434 17.7943 22.2525 16.0034 20.0441 16.0034C17.836 16.0034 16.0449 17.7943 16.0449 20.0026ZM26.4531 15.0329C27.2482 15.0329 27.8927 14.3884 27.8927 13.5935C27.8927 12.7985 27.2482 12.1543 26.4532 12.1543C25.6583 12.1543 25.0138 12.7986 25.0138 13.5935C25.0138 14.3884 25.6583 15.0329 26.4531 15.0329Z" fill="#AFC2DB"/>
</svg>
