<svg width="40" height="40" viewBox="0 0 40 40" fill="none" xmlns="http://www.w3.org/2000/svg">
<path d="M10.3457 19.817L14.8781 21.4175L16.645 26.8009C16.7218 27.1647 17.1827 27.2374 17.49 27.0192L20.025 25.055C20.2555 24.8367 20.6396 24.8367 20.9469 25.055L25.4793 28.1832C25.7866 28.4014 26.2475 28.2559 26.3243 27.8922L29.7044 12.6148C29.7812 12.2511 29.3971 11.8874 29.013 12.0328L10.3457 18.8713C9.88477 19.0168 9.88477 19.6715 10.3457 19.817ZM16.4145 20.6173L25.3256 15.4521C25.4793 15.3793 25.6329 15.5976 25.4793 15.6703L18.1814 22.145C17.9509 22.3632 17.7204 22.6542 17.7204 23.018L17.49 24.764C17.49 24.9822 17.1059 25.055 17.0291 24.764L16.1072 21.563C15.8767 21.1992 16.0304 20.7628 16.4145 20.6173Z" fill="#AFC2DB"/>
</svg>
