<svg width="40" height="40" viewBox="0 0 40 40" fill="none" xmlns="http://www.w3.org/2000/svg">
<rect x="2" y="1" width="36" height="36" rx="10" stroke="#2D4059" stroke-width="2" stroke-miterlimit="10" stroke-linecap="round" stroke-linejoin="round"/>
<path fill-rule="evenodd" clip-rule="evenodd" d="M15.6562 20.7076V18.1515H16.9764C17.7564 18.1515 18.2602 18.4873 18.2602 19.4353C18.2602 20.3834 17.7564 20.7076 16.9764 20.7076H15.6562ZM14.6 16.7832C14.3 16.7832 14.0962 17.0112 14.0962 17.2632V25.0638C14.0962 25.3878 14.4923 25.5557 14.8762 25.5557C15.2722 25.5557 15.6562 25.3878 15.6562 25.0638V21.9316H16.6642L18.3684 25.2438C18.4884 25.4837 18.6924 25.6157 18.9084 25.6157C19.3643 25.6157 19.8805 25.1957 19.8805 24.7997C19.8805 24.7516 19.8685 24.6678 19.8205 24.6077L18.2483 21.6914C19.1483 21.4156 19.8205 20.6714 19.8205 19.2915C19.8205 17.3832 18.5484 16.7832 16.9764 16.7832H14.6ZM8.68415 16.7832C8.3361 16.7832 8 16.9513 8 17.2754V25.0638C8 25.3878 8.38427 25.5558 8.78027 25.5558C9.16425 25.5558 9.56032 25.3878 9.56032 25.0638V21.7756H11.3963C11.7323 21.7756 11.8763 21.4515 11.8763 21.1756C11.8763 20.8515 11.7083 20.5515 11.3963 20.5515H9.56032V18.1515H12.8724C13.1844 18.1515 13.3525 17.8275 13.3525 17.4554C13.3525 17.1313 13.2083 16.7832 12.8724 16.7832H8.68415ZM22.4964 20.5515H24.3204C24.6324 20.5515 24.8124 20.8515 24.8124 21.1755C24.8124 21.4515 24.6563 21.7756 24.3204 21.7756H22.4964V24.1878H25.8924C26.2043 24.1878 26.3846 24.5117 26.3846 24.8837C26.3846 25.2079 26.2285 25.5558 25.8924 25.5558H21.6203C21.2721 25.5558 20.936 25.3878 20.936 25.0638V17.2754C20.936 16.9513 21.2721 16.7832 21.6203 16.7832H25.8924C26.2285 16.7832 26.3846 17.1313 26.3846 17.4554C26.3846 17.8274 26.2043 18.1515 25.8924 18.1515H22.4964V20.5515ZM30.6803 20.5515H28.8561V18.1515H32.2522C32.5641 18.1515 32.7444 17.8274 32.7444 17.4554C32.7444 17.1313 32.5883 16.7832 32.2522 16.7832H27.98C27.6318 16.7832 27.2959 16.9513 27.2959 17.2754V25.0638C27.2959 25.3878 27.6318 25.5558 27.98 25.5558H32.2522C32.5883 25.5558 32.7444 25.2079 32.7444 24.8837C32.7444 24.5117 32.5641 24.1878 32.2522 24.1878H28.8561V21.7756H30.6803C31.0161 21.7756 31.1722 21.4515 31.1722 21.1755C31.1722 20.8515 30.9922 20.5515 30.6803 20.5515Z" fill="#FF5722"/>
<path d="M15.1998 35.4C15.1998 37.3882 13.588 39 11.5999 39C9.61178 39 8 37.3882 8 35.4C8 33.4118 9.61178 31.8 11.5999 31.8C13.588 31.8 15.1998 33.4118 15.1998 35.4Z" fill="white" stroke="#2D4059" stroke-width="2" stroke-miterlimit="10" stroke-linecap="round" stroke-linejoin="round"/>
<path d="M31.9998 35.4C31.9998 37.3882 30.388 39 28.3999 39C26.4117 39 24.7998 37.3882 24.7998 35.4C24.7998 33.4118 26.4117 31.8 28.3999 31.8C30.388 31.8 31.9998 33.4118 31.9998 35.4Z" fill="white" stroke="#2D4059" stroke-width="2" stroke-miterlimit="10" stroke-linecap="round" stroke-linejoin="round"/>
<path d="M24.7199 0.999666V7.59959C24.7199 9.24961 23.37 10.5996 21.72 10.5996H17.9999C16.35 10.5996 15 9.24961 15 7.59959V0.999666" stroke="#2D4059" stroke-width="2" stroke-miterlimit="10" stroke-linecap="round" stroke-linejoin="round"/>
</svg>
