<svg width="24" height="24" viewBox="0 0 24 24" fill="none" xmlns="http://www.w3.org/2000/svg">
<path d="M2.91698 11.2457L7.44939 12.8462L9.21625 18.2296C9.29307 18.5934 9.75399 18.6661 10.0613 18.4479L12.5963 16.4837C12.8268 16.2654 13.2109 16.2654 13.5182 16.4837L18.0506 19.6119C18.3579 19.8301 18.8188 19.6846 18.8956 19.3209L22.2757 4.04355C22.3525 3.6798 21.9684 3.31606 21.5843 3.46156L2.91698 10.3C2.45606 10.4455 2.45606 11.1002 2.91698 11.2457ZM8.9858 12.046L17.8969 6.88077C18.0506 6.80802 18.2042 7.02627 18.0506 7.09902L10.7527 13.5737C10.5222 13.792 10.2917 14.0829 10.2917 14.4467L10.0613 16.1927C10.0613 16.4109 9.67717 16.4837 9.60035 16.1927L8.6785 12.9917C8.44804 12.628 8.6017 12.1915 8.9858 12.046Z" fill="#FF5722"/>
</svg>
