<svg width="215" height="38" viewBox="0 0 215 38" fill="none" xmlns="http://www.w3.org/2000/svg">
<g clip-path="url(#clip0_3428_2795)">
<path d="M36.8867 0H23.1562V17.9609H38V1.11328C38 0.498453 37.5015 0 36.8867 0ZM23.1562 27.9805H38V20.1875H23.1562V27.9805ZM29.4648 22.9707H31.6914C32.3062 22.9707 32.8047 23.4692 32.8047 24.084C32.8047 24.6988 32.3062 25.1973 31.6914 25.1973H29.4648C28.85 25.1973 28.3516 24.6988 28.3516 24.084C28.3516 23.4692 28.85 22.9707 29.4648 22.9707ZM23.1562 38H36.8867C37.5015 38 38 37.5015 38 36.8867V30.207H23.1562V38ZM29.4648 32.9902H31.6914C32.3062 32.9902 32.8047 33.4887 32.8047 34.1035C32.8047 34.7183 32.3062 35.2168 31.6914 35.2168H29.4648C28.85 35.2168 28.3516 34.7183 28.3516 34.1035C28.3516 33.4887 28.85 32.9902 29.4648 32.9902ZM0 1.11328V36.8867C0 37.5015 0.498453 38 1.11328 38H9.35156V0H1.11328C0.498453 0 0 0.498453 0 1.11328ZM4.82422 17.8867C4.82422 17.2719 5.32267 16.7734 5.9375 16.7734C6.55233 16.7734 7.05078 17.2719 7.05078 17.8867V20.1133C7.05078 20.7281 6.55233 21.2266 5.9375 21.2266C5.32267 21.2266 4.82422 20.7281 4.82422 20.1133V17.8867ZM11.5781 38H20.9297V0H11.5781V38ZM13.8789 17.8867C13.8789 17.2719 14.3774 16.7734 14.9922 16.7734C15.607 16.7734 16.1055 17.2719 16.1055 17.8867V20.1133C16.1055 20.7281 15.607 21.2266 14.9922 21.2266C14.3774 21.2266 13.8789 20.7281 13.8789 20.1133V17.8867Z" fill="#FF5722"/>
</g>
<path d="M121.307 29.0887L118.34 16.1701L114.847 27.1725C114.477 28.45 113.632 29.0887 112.313 29.0887H110.675C109.357 29.0887 108.512 28.45 108.141 27.1725L104.649 15.9538L101.682 29.0887H96.335L100.415 11.287C100.579 10.4423 100.888 9.85506 101.342 9.5254C101.795 9.17513 102.362 9 103.041 9H105.298C106.616 9 107.471 9.64902 107.863 10.9471L111.51 22.9694L115.126 10.9471C115.517 9.64902 116.362 9 117.66 9H119.916C120.596 9 121.162 9.17513 121.616 9.5254C122.069 9.85506 122.388 10.4423 122.574 11.287L126.684 29.0887H121.307Z" fill="#2D4059"/>
<path d="M135.951 21.1459V16.85H147.819V21.1459H135.951ZM128.75 29.0887V9H148.035V14.1612H134.158V23.8965H148.066V29.0887H128.75Z" fill="#2D4059"/>
<path d="M151.205 29.0887V9H165.73C166.802 9 167.719 9.13392 168.481 9.40177C169.264 9.66962 169.892 10.0405 170.366 10.5144C170.861 10.9883 171.221 11.5549 171.448 12.2142C171.675 12.8529 171.788 13.5431 171.788 14.2849C171.788 15.3357 171.592 16.2319 171.201 16.9737C170.809 17.6948 170.253 18.1996 169.532 18.488C170.315 18.7353 170.964 19.2607 171.479 20.0642C172.015 20.8678 172.282 21.9083 172.282 23.1857C172.282 24.9988 171.706 26.4411 170.552 27.5125C169.419 28.5633 167.77 29.0887 165.607 29.0887H151.205ZM158.406 21.0223V16.8809H165.051C165.524 16.8809 165.885 16.7573 166.132 16.5101C166.4 16.2628 166.534 15.9023 166.534 15.4284C166.534 14.9545 166.4 14.6042 166.132 14.3776C165.885 14.1303 165.524 14.0067 165.051 14.0067H156.613V24.0511H165.329C166.4 24.0511 166.936 23.5669 166.936 22.5985C166.936 22.104 166.802 21.7228 166.534 21.455C166.266 21.1665 165.875 21.0223 165.36 21.0223H158.406Z" fill="#2D4059"/>
<path d="M182.068 21.1459V16.85H193.936V21.1459H182.068ZM174.867 29.0887V9H194.152V14.1612H180.275V23.8965H194.183V29.0887H174.867Z" fill="#2D4059"/>
<path d="M197.322 29.0887V9H202.761V23.8965H215V29.0887H197.322Z" fill="#2D4059"/>
<path d="M53.8196 29.0887V13.0664H48V9H63.9005V13.0664H58.0809V29.0887H53.8196Z" fill="#2D4059"/>
<path d="M72.0961 21.1263C72.8104 21.1263 73.3948 20.9071 73.8493 20.4688C74.3201 20.0305 74.5555 19.4542 74.5555 18.74C74.5555 18.0257 74.3201 17.4575 73.8493 17.0355C73.3948 16.5972 72.8104 16.378 72.0961 16.378H70.3673C69.6368 16.378 69.0443 16.5972 68.5897 17.0355C68.1352 17.4575 67.9079 18.0257 67.9079 18.74C67.9079 19.4542 68.1352 20.0305 68.5897 20.4688C69.0443 20.9071 69.6368 21.1263 70.3673 21.1263H72.0961ZM70.3916 24.8274C69.4501 24.8274 68.5816 24.6813 67.7862 24.3891C66.9908 24.0969 66.3009 23.683 65.7165 23.1473C65.1321 22.6116 64.6775 21.9704 64.3529 21.2236C64.0282 20.4769 63.8659 19.649 63.8659 18.74C63.8659 17.8471 64.0282 17.0274 64.3529 16.2806C64.6775 15.5339 65.1321 14.8927 65.7165 14.357C66.3009 13.8213 66.9908 13.4073 67.7862 13.1151C68.5816 12.8229 69.4501 12.6768 70.3916 12.6768H72.0961C73.0377 12.6768 73.9061 12.8229 74.7016 13.1151C75.497 13.4073 76.1869 13.8213 76.7713 14.357C77.3557 14.8927 77.8102 15.5339 78.1349 16.2806C78.4596 17.0274 78.6219 17.8471 78.6219 18.74C78.6219 19.649 78.4596 20.4769 78.1349 21.2236C77.8102 21.9704 77.3557 22.6116 76.7713 23.1473C76.1869 23.683 75.497 24.0969 74.7016 24.3891C73.9061 24.6813 73.0377 24.8274 72.0961 24.8274H70.3916Z" fill="#2D4059"/>
<path d="M80.401 29.0643V18.4721C80.401 16.6053 80.9042 15.1768 81.9107 14.1865C82.9334 13.1801 84.4593 12.6768 86.4884 12.6768H88.6312C89.5728 12.6768 90.4412 12.8229 91.2367 13.1151C92.0483 13.3911 92.7464 13.7969 93.3308 14.3326C93.9152 14.8683 94.3697 15.5339 94.6944 16.3293C95.019 17.1085 95.1814 18.0013 95.1814 19.0078C95.1814 20.8259 94.6294 22.2707 93.5256 23.3421C92.4217 24.4135 90.7821 24.9492 88.6069 24.9492C88.0874 24.9492 87.568 24.9167 87.0485 24.8518C86.5453 24.8031 86.0826 24.7219 85.6605 24.6083V20.9314C86.0826 21.0451 86.5128 21.1344 86.9511 21.1993C87.3894 21.248 87.7952 21.2723 88.1686 21.2723C89.1101 21.2723 89.8325 21.1019 90.3357 20.761C90.8552 20.4039 91.1149 19.7789 91.1149 18.8861C91.1149 18.0095 90.8795 17.3764 90.4088 16.9868C89.9542 16.5972 89.3617 16.4024 88.6312 16.4024H86.5858C85.1735 16.4024 84.4674 17.0923 84.4674 18.4721V29.0643H80.401Z" fill="#2D4059"/>
<defs>
<clipPath id="clip0_3428_2795">
<rect width="38" height="38" fill="white"/>
</clipPath>
</defs>
</svg>
