<svg width="94" height="32" viewBox="0 0 94 32" fill="none" xmlns="http://www.w3.org/2000/svg">
<g clip-path="url(#clip0_3428_5178)">
<path d="M31.0625 0H19.5V15.125H32V0.9375C32 0.41975 31.5802 0 31.0625 0ZM19.5 23.5625H32V17H19.5V23.5625ZM24.8125 19.3438H26.6875C27.2052 19.3438 27.625 19.7635 27.625 20.2812C27.625 20.799 27.2052 21.2188 26.6875 21.2188H24.8125C24.2948 21.2188 23.875 20.799 23.875 20.2812C23.875 19.7635 24.2948 19.3438 24.8125 19.3438ZM19.5 32H31.0625C31.5802 32 32 31.5802 32 31.0625V25.4375H19.5V32ZM24.8125 27.7812H26.6875C27.2052 27.7812 27.625 28.201 27.625 28.7188C27.625 29.2365 27.2052 29.6562 26.6875 29.6562H24.8125C24.2948 29.6562 23.875 29.2365 23.875 28.7188C23.875 28.201 24.2948 27.7812 24.8125 27.7812ZM0 0.9375V31.0625C0 31.5802 0.41975 32 0.9375 32H7.875V0H0.9375C0.41975 0 0 0.41975 0 0.9375ZM4.0625 15.0625C4.0625 14.5448 4.48225 14.125 5 14.125C5.51775 14.125 5.9375 14.5448 5.9375 15.0625V16.9375C5.9375 17.4552 5.51775 17.875 5 17.875C4.48225 17.875 4.0625 17.4552 4.0625 16.9375V15.0625ZM9.75 32H17.625V0H9.75V32ZM11.6875 15.0625C11.6875 14.5448 12.1073 14.125 12.625 14.125C13.1427 14.125 13.5625 14.5448 13.5625 15.0625V16.9375C13.5625 17.4552 13.1427 17.875 12.625 17.875C12.1073 17.875 11.6875 17.4552 11.6875 16.9375V15.0625Z" fill="#FF5722"/>
</g>
<path d="M48.1121 26.7436L46.673 20.4777L44.9791 25.8142C44.7992 26.4338 44.3895 26.7436 43.7499 26.7436H42.9554C42.3159 26.7436 41.9061 26.4338 41.7262 25.8142L40.0324 20.3728L38.5933 26.7436H36L37.9787 18.1093C38.0587 17.6995 38.2086 17.4147 38.4284 17.2548C38.6483 17.0849 38.9231 17 39.2529 17H40.3472C40.9867 17 41.4015 17.3148 41.5913 17.9444L43.3602 23.7756L45.114 17.9444C45.3039 17.3148 45.7136 17 46.3432 17H47.4375C47.7673 17 48.0421 17.0849 48.262 17.2548C48.4818 17.4147 48.6367 17.6995 48.7267 18.1093L50.7204 26.7436H48.1121Z" fill="#2D4059"/>
<path d="M55.2149 22.8911V20.8075H60.9712V22.8911H55.2149ZM51.7222 26.7436V17H61.0761V19.5034H54.3455V24.2253H61.0911V26.7436H51.7222Z" fill="#2D4059"/>
<path d="M62.6135 26.7436V17H69.6589C70.1786 17 70.6233 17.065 70.993 17.1949C71.3728 17.3248 71.6776 17.5047 71.9075 17.7345C72.1473 17.9644 72.3222 18.2392 72.4321 18.559C72.542 18.8688 72.597 19.2036 72.597 19.5633C72.597 20.073 72.5021 20.5077 72.3122 20.8675C72.1223 21.2172 71.8525 21.4621 71.5027 21.602C71.8825 21.7219 72.1973 21.9767 72.4471 22.3665C72.7069 22.7562 72.8368 23.2609 72.8368 23.8805C72.8368 24.7599 72.557 25.4595 71.9974 25.9791C71.4478 26.4888 70.6483 26.7436 69.599 26.7436H62.6135ZM66.1063 22.8312V20.8225H69.3291C69.559 20.8225 69.7339 20.7625 69.8538 20.6426C69.9837 20.5227 70.0487 20.3478 70.0487 20.118C70.0487 19.8881 69.9837 19.7182 69.8538 19.6083C69.7339 19.4884 69.559 19.4284 69.3291 19.4284H65.2368V24.3002H69.4641C69.9837 24.3002 70.2435 24.0654 70.2435 23.5957C70.2435 23.3558 70.1786 23.171 70.0487 23.041C69.9188 22.9011 69.7289 22.8312 69.479 22.8312H66.1063Z" fill="#2D4059"/>
<path d="M77.5831 22.8911V20.8075H83.3393V22.8911H77.5831ZM74.0904 26.7436V17H83.4443V19.5034H76.7137V24.2253H83.4593V26.7436H74.0904Z" fill="#2D4059"/>
<path d="M84.9817 26.7436V17H87.62V24.2253H93.5561V26.7436H84.9817Z" fill="#2D4059"/>
<path d="M38.8227 14.7436V6.97234H36V5H43.7122V6.97234H40.8895V14.7436H38.8227Z" fill="#2D4059"/>
<path d="M47.6874 10.8816C48.0338 10.8816 48.3172 10.7753 48.5377 10.5627C48.766 10.3501 48.8802 10.0706 48.8802 9.72418C48.8802 9.37774 48.766 9.10216 48.5377 8.89745C48.3172 8.68486 48.0338 8.57856 47.6874 8.57856H46.8488C46.4945 8.57856 46.2071 8.68486 45.9867 8.89745C45.7662 9.10216 45.656 9.37774 45.656 9.72418C45.656 10.0706 45.7662 10.3501 45.9867 10.5627C46.2071 10.7753 46.4945 10.8816 46.8488 10.8816H47.6874ZM46.8606 12.6768C46.404 12.6768 45.9827 12.6059 45.5969 12.4642C45.2111 12.3225 44.8765 12.1217 44.593 11.8619C44.3096 11.602 44.0891 11.291 43.9316 10.9288C43.7742 10.5667 43.6954 10.1651 43.6954 9.72418C43.6954 9.29113 43.7742 8.89351 43.9316 8.53132C44.0891 8.16913 44.3096 7.85813 44.593 7.5983C44.8765 7.33847 45.2111 7.13769 45.5969 6.99596C45.9827 6.85424 46.404 6.78338 46.8606 6.78338H47.6874C48.144 6.78338 48.5653 6.85424 48.9511 6.99596C49.3369 7.13769 49.6715 7.33847 49.955 7.5983C50.2384 7.85813 50.4589 8.16913 50.6163 8.53132C50.7738 8.89351 50.8526 9.29113 50.8526 9.72418C50.8526 10.1651 50.7738 10.5667 50.6163 10.9288C50.4589 11.291 50.2384 11.602 49.955 11.8619C49.6715 12.1217 49.3369 12.3225 48.9511 12.4642C48.5653 12.6059 48.144 12.6768 47.6874 12.6768H46.8606Z" fill="#2D4059"/>
<path d="M51.7155 14.7318V9.59426C51.7155 8.68879 51.9595 7.99592 52.4477 7.51562C52.9437 7.02746 53.6839 6.78338 54.6681 6.78338H55.7074C56.1641 6.78338 56.5853 6.85424 56.9711 6.99596C57.3648 7.12982 57.7033 7.32666 57.9868 7.58649C58.2702 7.84632 58.4907 8.16913 58.6482 8.55494C58.8057 8.93288 58.8844 9.36593 58.8844 9.85409C58.8844 10.7359 58.6167 11.4367 58.0813 11.9563C57.5459 12.476 56.7506 12.7358 55.6956 12.7358C55.4436 12.7358 55.1917 12.7201 54.9397 12.6886C54.6956 12.665 54.4712 12.6256 54.2665 12.5705V10.7871C54.4712 10.8422 54.6799 10.8855 54.8925 10.917C55.105 10.9407 55.3019 10.9525 55.483 10.9525C55.9397 10.9525 56.29 10.8698 56.5341 10.7044C56.7861 10.5312 56.912 10.2281 56.912 9.79504C56.912 9.36986 56.7979 9.06279 56.5695 8.87382C56.3491 8.68486 56.0617 8.59037 55.7074 8.59037H54.7153C54.0303 8.59037 53.6878 8.925 53.6878 9.59426V14.7318H51.7155Z" fill="#2D4059"/>
<defs>
<clipPath id="clip0_3428_5178">
<rect width="32" height="32" fill="white"/>
</clipPath>
</defs>
</svg>
